<svg width="770" height="651" viewBox="0 0 770 651" fill="none" xmlns="http://www.w3.org/2000/svg">
<path d="M571.012 296.445V665H534.91V296.445H571.012Z" fill="#8B4017"/>
<path d="M490.074 287.719V664.94H453.972V287.719H490.074Z" fill="#8B4017"/>
<path d="M850.969 392.685C847.34 390.534 843.527 388.69 839.837 386.662C819.787 375.784 799.922 364.661 779.073 355.442C774.829 353.537 772.615 351.14 773.107 346.285C775.321 325.513 777.289 304.679 779.565 283.907C780.241 277.7 781.287 277.208 786.638 280.096C803.059 288.946 820.279 295.706 838.176 300.869C840.575 301.545 843.035 302.712 845.741 301.053C845.126 299.148 843.896 298.656 842.728 298.103C818.188 285.382 795.002 270.509 772.861 254.162C747.768 235.602 723.659 215.69 701.149 193.996C682.945 176.419 665.17 158.351 648.688 139.054C627.469 114.164 607.973 88.0445 588.846 61.4953C578.206 46.6842 572.548 31.7503 574.516 13.4977C575.5 4.21774 568.243 -1.19044 558.833 0.223062C553.544 1.022 549.731 3.97191 546.656 8.02805C543.826 11.7154 540.321 13.7435 535.647 14.6039C522.793 17.0007 510.062 19.7048 497.269 22.4089C493.518 23.2078 490.012 24.0682 488.413 19.0288C487.859 17.308 485.891 16.3861 484.169 15.6487C475.62 11.9613 467.318 17.2465 467.625 26.8952C467.933 34.7002 465.165 40.723 460.06 46.1926C451.758 55.0423 443.086 63.5848 433.614 71.0825C404.278 94.3746 372.174 113.242 338.901 130.204C315.96 141.881 292.221 151.836 268.604 161.977C266.882 162.714 264.545 162.776 263.868 165.234C265.406 166.832 266.943 165.787 268.481 165.357L284.348 160.748C324.509 148.948 363.44 134.198 399.911 113.549C421.191 101.504 441.794 88.4133 460.429 72.4346C464.365 69.0545 465.103 69.4846 465.841 74.647C467.318 84.7873 465.104 89.5195 456.124 94.8662C454.525 95.7881 453.049 96.8328 451.512 97.8776C423.589 117.421 394.13 134.26 362.702 147.657C327.953 162.468 292.282 174.268 255.073 181.274C236.807 184.716 218.602 188.157 200.152 190.185C163.066 194.303 125.857 196.27 88.5865 197.069C85.7574 197.069 82.8053 197.069 80.3452 198.912C81.3907 201.186 83.2358 201.063 84.7733 201.371C103.716 205.365 122.966 207.147 142.216 207.885C168.662 208.991 195.108 208.561 221.431 205.304C225.798 204.751 227.213 206.348 226.967 210.343C226.413 219.131 225.675 227.92 225.798 236.708C225.86 242.178 226.106 247.709 225.183 253.178C224.63 256.19 223.215 257.603 220.078 257.726C214.42 257.849 208.7 258.587 203.042 258.587C165.464 258.587 128.255 262.766 91.2311 268.788C61.4025 273.643 32.4964 282.247 4.14381 292.634C2.54475 293.187 -0.284358 293.432 0.0231538 295.522C0.330665 298.165 3.22128 297.427 5.06635 297.427C13.9227 297.55 22.656 296.382 31.3893 295.03C50.6396 292.08 69.8283 288.823 89.2015 286.611C117.308 283.477 145.661 283.046 173.89 282.247C199.537 281.51 225.245 280.465 251.014 281.571C279.059 282.739 307.166 283.661 335.272 284.337C349.787 284.706 364.24 285.75 378.693 286.857C402.863 288.762 426.972 291.036 451.142 292.941C459.63 293.617 459.814 293.678 459.937 302.405C460.306 325.759 457.6 348.989 457.723 372.281C457.723 374.494 456.985 377.567 460.245 378.12C463.135 378.611 464.98 376.583 466.149 374.064C468.302 369.393 470.454 364.722 472.545 360.051C473.406 358.085 474.513 356.303 476.789 356.241C483.493 356.057 483.923 351.509 484.292 346.347C485.338 331.659 485.215 316.97 485.276 302.282C485.276 298.41 486.322 296.567 490.75 297.181C504.588 298.964 518.487 300.439 532.326 301.975C535.401 302.344 537 303.942 536.938 307.014C536.815 316.171 536.692 325.39 536.508 334.547C536.077 356.548 534.54 378.55 534.909 400.613C534.909 402.149 534.601 404.3 536.815 404.607C538.783 404.915 539.644 403.133 540.382 401.719C541.12 400.244 541.612 398.646 542.35 397.171C543.027 395.696 543.826 393.545 545.61 393.914C550.346 394.897 552.929 393.115 554.343 388.69C554.835 387.154 556.557 386.846 558.033 386.662C563.999 385.679 566.09 382.237 565.967 376.276C565.721 357.163 566.459 338.111 567.812 319.06C568.612 307.875 568.796 307.936 579.867 310.395C580.236 310.395 580.605 310.579 580.912 310.64C616.584 317.892 651.947 326.496 686.819 336.882C713.757 344.872 740.634 353.168 767.08 362.755C795.432 373.019 823.17 384.757 851.092 396.188C852.199 396.618 853.306 397.724 854.598 396.372C854.413 394.16 852.322 393.607 850.907 392.746L850.969 392.685ZM289.945 253.424C289.945 257.48 288.223 259.017 284.287 258.832C279.674 258.648 275.123 258.832 270.51 258.832C260.424 259.447 250.399 257.419 240.251 257.726C236.622 257.849 235.638 256.19 235.761 252.687C236.069 238.367 237.176 224.171 237.914 209.852C238.16 204.689 240.436 202.723 244.987 201.801C256.549 199.588 267.989 197.13 279.551 195.04C292.713 192.705 292.221 192.828 292.344 206.226C292.528 222.02 289.76 237.63 289.883 253.424H289.945ZM351.755 178.078C350.955 190.677 350.156 203.337 349.356 215.936C348.68 226.199 348.003 236.401 347.327 246.664V249.43C347.142 257.972 342.283 262.151 332.751 262.09C326.108 261.721 317.621 261.291 309.195 260.861C304.46 260.615 301.692 259.017 302.061 253.486C303.414 233.205 304.46 212.863 305.628 192.521C305.813 189.141 307.719 187.113 310.794 186.068C323.033 182.073 335.272 178.14 347.45 174.145C351.386 172.855 351.939 175.129 351.755 178.078ZM407.783 155.524C406.738 170.704 405.508 185.883 404.401 201.063C403.355 215.874 402.371 230.685 401.387 245.496C401.08 250.044 400.403 254.653 400.465 259.201C400.465 264.056 398.496 265.9 393.822 265.47C392.162 265.285 390.501 265.47 388.841 265.47C381.337 265.04 373.834 264.548 366.269 264.179C361.349 263.933 359.074 261.782 359.443 256.497C361.288 232.16 362.948 207.823 364.67 183.487C364.67 182.196 365.101 180.905 364.916 179.676C363.194 170.151 367.561 165.357 376.479 162.53C385.151 159.764 393.392 155.462 401.818 151.714C407.107 149.378 408.152 149.931 407.783 155.524ZM465.288 122.583C465.288 125.349 465.288 128.114 465.288 130.818C462.643 165.603 463.258 200.449 461.782 235.233C461.352 245.128 461.044 255.022 460.983 264.917C460.983 269.464 459.322 271.308 454.771 270.878C442.163 269.649 429.617 268.42 417.009 267.313C411.596 266.822 410.858 263.442 411.535 259.201C414.057 242.915 413.811 226.383 415.84 209.974C417.993 192.705 418.792 175.313 420.207 157.982C420.576 153.803 421.006 149.563 421.498 145.384C421.744 142.987 422.974 141.327 425.065 140.16C436.874 133.4 448.621 126.639 460.368 119.818C463.75 117.851 465.473 118.343 465.35 122.583H465.288ZM501.513 40.723C507.663 39.9855 513.506 37.5272 520.948 37.4658C517.503 42.751 513.321 45.7009 509.447 48.8967C507.663 50.3716 506.003 49.6956 504.588 48.2207C502.743 46.2541 500.283 44.6562 499.852 41.7677C499.852 41.4604 500.898 40.7844 501.513 40.723ZM499.299 93.084C501.328 91.9163 503.112 90.257 505.018 88.782C512.276 83.3124 512.214 83.3738 518.303 89.8882C524.638 96.7099 531.218 103.286 537.615 110.046C541.489 114.164 540.936 115.761 535.093 117.052C522.547 119.695 510 122.276 497.392 124.796C490.627 126.148 489.643 125.287 489.581 118.404V110.906C487.244 103.163 491.611 97.3245 499.237 93.084H499.299ZM481.771 70.2836V55.4111L490.012 62.8473L481.771 70.2836ZM538.168 220.791C537.615 239.658 536.631 258.525 537 277.392C537 280.65 535.462 281.448 532.51 281.018C518.549 278.99 504.588 277.085 490.565 275.118C487.06 274.627 486.26 272.291 486.26 269.219V249.43H486.445C486.445 243.038 486.445 236.585 486.445 230.194C486.445 225.707 488.597 223.495 492.841 222.696C505.818 220.361 518.857 218.025 531.772 215.506C536.569 214.584 538.291 216.366 538.168 220.852V220.791ZM540.259 141.573C540.136 145.629 540.259 149.624 540.259 153.68H539.214V188.342C539.214 192.091 537.43 194.119 533.863 194.856C520.148 197.622 506.495 200.387 492.841 203.214C488.905 204.013 487.675 201.616 487.921 198.482C489.151 182.872 488.29 167.262 488.597 151.652C488.597 147.903 489.95 145.937 493.764 145.261C507.479 142.741 521.194 140.037 534.847 137.271C538.783 136.472 540.382 137.579 540.259 141.573ZM540.259 85.6477C539.029 86.2008 538.168 85.2175 537.43 84.4801C534.54 81.4072 531.649 78.3344 528.82 75.2001C527.221 73.4179 527.344 71.4513 528.82 69.669C531.587 66.2889 534.54 62.9702 537.43 59.6516C538.107 58.8527 538.968 57.8694 540.198 58.361C541.428 58.8527 541.243 60.2047 541.305 61.2495V82.6978C541.305 83.7426 541.489 85.0332 540.259 85.6477ZM610.864 193.443C608.465 217.411 608.834 241.686 606.682 265.838C605.944 273.889 605.636 281.94 605.452 289.991C605.329 294.17 603.73 295.522 599.609 294.6C591.368 292.695 583.126 290.913 574.824 289.192C569.965 288.209 567.689 285.689 567.874 280.404C569.288 236.77 569.78 193.074 570.211 149.378C570.211 147.965 569.719 146.121 571.379 145.445C573.04 144.769 573.963 146.49 574.947 147.412C583.987 155.708 592.844 164.251 602.192 172.302C608.773 177.956 613.201 184.101 610.925 193.381H610.864V193.443ZM611.602 160.317C608.588 161.362 606.251 156.569 603.914 154.172C594.258 144.4 584.849 134.321 575.193 124.488C572.425 121.661 571.072 118.588 571.133 114.655C571.256 109.124 571.133 103.655 571.133 98.1234H571.256V79.9323C571.256 78.8875 571.072 77.474 572.363 77.0438C573.655 76.6136 574.27 77.9042 574.885 78.7031C587.801 95.8495 601.331 112.566 612.77 130.695C616.399 136.472 614.185 144.032 613.57 150.73C613.263 153.987 614.677 159.211 611.54 160.256L611.602 160.317ZM667.077 231.853C664.801 255.76 663.694 278.621 662.526 301.483C662.526 303.143 661.911 304.741 661.726 306.4C661.48 309.473 660.127 310.517 656.991 309.657C645.367 306.338 633.681 303.143 621.996 300.008C618.736 299.148 617.752 297.489 617.998 294.047C620.52 262.643 624.333 231.361 625.378 199.834C625.378 198.605 625.009 197.007 626.301 196.27C627.962 195.286 629.007 196.946 630.053 197.806C641.062 206.656 652.009 215.567 662.956 224.478C665.601 226.629 667.569 229.272 667.077 231.914V231.853ZM668.061 211.572C668.061 212.617 668.246 213.908 667.077 214.522C665.847 215.137 665.047 214.092 664.248 213.355C652.932 202.415 641.554 191.476 630.299 180.537C628.331 178.632 627.47 176.296 627.777 173.531C628.392 167.508 629.007 161.547 629.745 155.524C629.868 154.663 630.176 153.557 630.729 153.189C631.898 152.39 632.759 153.496 633.497 154.295C639.955 161.239 646.412 168.307 652.931 175.19C655.822 178.263 658.651 181.336 661.849 184.101C667.754 189.141 669.599 195.348 668.123 202.047V211.572H668.061ZM716.463 270.202C714.495 286.795 714.557 303.511 713.45 320.166C712.958 327.111 712.466 327.848 706.069 325.759C695.799 322.379 685.589 318.753 675.318 315.311C670.337 313.652 671.936 309.473 671.444 304.679C674.642 290.851 672.674 275.241 675.441 260C676.61 253.547 676.671 246.848 676.979 240.273C677.163 236.892 678.27 236.339 680.915 238.306C691.739 246.172 702.625 254.039 713.511 261.905C716.463 264.056 716.832 266.945 716.463 270.263V270.202ZM718.001 242.669C717.57 246.111 717.263 249.552 716.771 252.994C716.586 254.53 717.447 256.743 715.479 257.357C713.819 257.849 712.65 256.005 711.42 254.961C702.072 247.033 692.785 238.982 683.314 231.177C679.623 228.104 677.532 224.724 678.209 219.807C678.639 216.55 678.763 213.232 679.132 209.974C679.378 208.008 678.332 205.181 680.115 204.382C682.207 203.46 683.929 205.98 685.528 207.332C694.815 215.321 703.978 223.495 713.265 231.546C716.709 234.557 718.616 237.999 718.001 242.669ZM765.05 342.659C764.743 347.146 763.328 348.866 758.531 346.715C747.645 341.922 736.575 337.497 725.504 333.011C722.368 331.72 720.276 330.245 720.953 326.127C724.028 307.137 723.106 287.779 726.058 268.665C726.98 262.704 726.734 256.313 726.919 250.106C727.103 244.697 728.764 243.96 733.315 246.971C743.893 253.854 754.349 261.045 765.112 267.621C770.585 271.001 769.724 275.794 769.847 280.711C768.248 301.36 766.649 321.948 765.112 342.598L765.05 342.659Z" fill="#8B4017"/>
</svg>
