<svg width="126" height="61" viewBox="0 0 126 61" fill="none" xmlns="http://www.w3.org/2000/svg">
<g clip-path="url(#clip0_51_2826)">
<path d="M9.60464 54.7979L15.5732 39.9004H19.0481L10.6097 59.9535H8.52069L0 39.9004H3.58116L9.60464 54.7979Z" fill="black"/>
<path d="M30.5635 52.3555C30.5635 52.8254 30.5258 53.3057 30.4537 53.7928H19.0277C19.2438 54.9693 19.7652 55.9023 20.5884 56.5884C21.4117 57.2779 22.5093 57.6209 23.8849 57.6209C24.7184 57.6209 25.5897 57.4768 26.5021 57.1852C27.4146 56.8971 28.1967 56.5163 28.8484 56.0464L30.097 58.2452C28.2687 59.6001 26.1625 60.2793 23.7751 60.2793C21.2059 60.2793 19.2575 59.5281 17.9266 58.0257C16.5956 56.5232 15.9336 54.7155 15.9336 52.599C15.9336 50.4826 16.6196 48.5754 17.9952 47.145C19.3878 45.6974 21.1887 44.9736 23.3943 44.9736C25.6 44.9736 27.2293 45.6357 28.55 46.9529C29.8878 48.2907 30.5567 50.0915 30.5567 52.3521H30.5635V52.3555ZM23.3978 47.5532C22.2761 47.5532 21.3225 47.903 20.5335 48.5994C19.748 49.2957 19.2438 50.215 19.0277 51.3539H27.5483C27.4214 50.215 26.9721 49.2957 26.2037 48.5994C25.4353 47.903 24.4989 47.5532 23.3943 47.5532H23.3978Z" fill="black"/>
<path d="M35.122 59.9535H32.1377V45.327H35.0671V47.3886C35.5027 46.6305 36.1236 46.0302 36.94 45.598C37.753 45.1624 38.6757 44.9463 39.7082 44.9463C41.317 44.9463 42.6754 45.4711 43.7799 46.5208C44.9016 47.5876 45.4607 49.1003 45.4607 51.0521V59.9535H42.449V51.8925C42.449 50.5719 42.1334 49.5462 41.4988 48.8122C40.8642 48.0781 40.0135 47.7145 38.9467 47.7145C37.825 47.7145 36.9057 48.109 36.1922 48.8945C35.4787 49.68 35.122 50.6988 35.122 51.9474V59.9535Z" fill="black"/>
<path d="M56.4515 56.7498L57.484 59.0823C56.4 59.8953 55.052 60.3035 53.4398 60.3035C51.8276 60.3035 50.6716 59.8233 49.8586 58.8662C49.0456 57.9058 48.6374 56.5234 48.6374 54.7157V47.8758H46.1128V45.3237H48.6649V40.1406H51.6217V45.3237H56.6676V47.8758H51.6217V54.7671C51.6217 56.6297 52.373 57.5628 53.8754 57.5628C54.6712 57.5628 55.5322 57.2918 56.4549 56.7498H56.4515Z" fill="black"/>
<path d="M64.3481 60.307C62.3929 60.307 60.839 59.7375 59.6795 58.5987C58.5201 57.4599 57.9438 55.9128 57.9438 53.9576V45.3271H60.9281V53.9302C60.9281 55.0347 61.23 55.9128 61.8372 56.5611C62.4443 57.2129 63.2813 57.5388 64.3481 57.5388C65.4149 57.5388 66.2759 57.2232 66.8727 56.5886C67.4696 55.954 67.768 55.069 67.768 53.9302V45.3271H70.7798V53.9576C70.7798 55.9471 70.2103 57.5045 69.0715 58.6261C67.9327 59.7478 66.3582 60.307 64.3481 60.307Z" fill="black"/>
<path d="M76.0722 59.9535H73.0879V45.327H75.9384V47.4161C76.8063 45.7695 78.1921 44.9463 80.089 44.9463C80.703 44.9463 81.2827 45.0286 81.8247 45.1898L81.5537 48.0918C81.0666 47.91 80.5315 47.8208 79.9518 47.8208C78.7752 47.8208 77.8353 48.2187 77.1287 49.0145C76.4221 49.8104 76.0722 50.9595 76.0722 52.4619V59.9501V59.9535Z" fill="black"/>
<path d="M95.7173 52.3555C95.7173 52.8254 95.6796 53.3057 95.6076 53.7928H84.1815C84.3976 54.9693 84.919 55.9023 85.7422 56.5884C86.5655 57.2779 87.6632 57.6209 89.0387 57.6209C89.8722 57.6209 90.7435 57.4768 91.6559 57.1852C92.5684 56.8971 93.3505 56.5163 94.0022 56.0464L95.2508 58.2452C93.4225 59.6001 91.3163 60.2793 88.9289 60.2793C86.3597 60.2793 84.4113 59.5281 83.0804 58.0257C81.7494 56.5232 81.0874 54.7155 81.0874 52.599C81.0874 50.4826 81.7734 48.5754 83.149 47.145C84.5416 45.6974 86.3425 44.9736 88.5482 44.9736C90.7538 44.9736 92.3831 45.6357 93.7038 46.9529C95.0416 48.2907 95.7105 50.0915 95.7105 52.3521H95.7173V52.3555ZM88.5516 47.5532C87.4299 47.5532 86.4763 47.903 85.6873 48.5994C84.9018 49.2957 84.3976 50.215 84.1815 51.3539H92.7022C92.5752 50.215 92.1259 49.2957 91.3575 48.5994C90.5891 47.903 89.6527 47.5532 88.5482 47.5532H88.5516Z" fill="black"/>
<path d="M101.606 60.3067C100.447 60.3067 99.3734 60.0426 98.3786 59.5212C97.3839 58.9964 96.5881 58.2383 95.9912 57.2401L97.919 55.5044C98.3546 56.211 98.9103 56.7564 99.5895 57.1475C100.269 57.5351 100.962 57.7306 101.665 57.7306C102.368 57.7306 102.948 57.5557 103.401 57.2024C103.853 56.8491 104.08 56.4203 104.08 55.9126C104.08 55.1888 103.665 54.6297 102.831 54.2318C102.615 54.1049 102.025 53.8613 101.068 53.4977C100.09 53.0827 99.4763 52.8014 99.2225 52.6573C97.6652 51.8444 96.8899 50.6403 96.8899 49.0487C96.8899 47.8379 97.3427 46.8328 98.2483 46.037C99.1882 45.2412 100.402 44.8433 101.884 44.8433C103.963 44.8433 105.565 45.5945 106.687 47.0969L104.951 48.9424C104.083 47.8756 103.016 47.3405 101.751 47.3405C101.154 47.3405 100.677 47.4948 100.327 47.8001C99.9737 48.1088 99.7988 48.4896 99.7988 48.939C99.7988 49.6627 100.207 50.1978 101.02 50.5409L102.512 51.1652C103.469 51.5631 104.159 51.8718 104.574 52.0879C106.237 52.9558 107.071 54.1872 107.071 55.7788C107.071 57.0617 106.563 58.1388 105.551 59.0067C104.539 59.8745 103.226 60.3102 101.617 60.3102H101.606V60.3067Z" fill="black"/>
<path d="M42.1234 16.5474V37.1184H40.1099V16.5474H42.1234Z" fill="#F47A36"/>
<path d="M37.6088 16.0603V37.115H35.5952V16.0603H37.6088Z" fill="#F47A36"/>
<path d="M57.7378 21.9191C57.5354 21.799 57.3227 21.6961 57.1169 21.5829C55.9987 20.9758 54.8907 20.3549 53.7279 19.8404C53.4912 19.734 53.3677 19.6003 53.3951 19.3293C53.5186 18.1699 53.6284 17.007 53.7553 15.8476C53.793 15.5011 53.8514 15.4737 54.1498 15.6349C55.0657 16.1289 56.0261 16.5062 57.0243 16.7943C57.1581 16.8321 57.2953 16.8973 57.4462 16.8046C57.4119 16.6983 57.3433 16.6709 57.2781 16.64C55.9095 15.9299 54.6163 15.0998 53.3814 14.1874C51.9819 13.1514 50.6372 12.04 49.3818 10.8292C48.3664 9.84813 47.3751 8.83965 46.4558 7.76256C45.2724 6.37331 44.185 4.91547 43.1182 3.43361C42.5247 2.60692 42.2092 1.77338 42.3189 0.7546C42.3738 0.236636 41.969 -0.0652242 41.4442 0.013671C41.1492 0.058264 40.9365 0.222915 40.765 0.44931C40.6072 0.655124 40.4117 0.768321 40.151 0.816344C39.4341 0.950123 38.724 1.10105 38.0106 1.25198C37.8013 1.29658 37.6058 1.3446 37.5166 1.06332C37.4857 0.967274 37.376 0.915821 37.2799 0.874658C36.8031 0.668844 36.34 0.963844 36.3572 1.50239C36.3743 1.93803 36.22 2.27419 35.9353 2.57948C35.4722 3.07343 34.9885 3.55024 34.4603 3.96872C32.8241 5.26878 31.0335 6.32186 29.1777 7.2686C27.8982 7.92035 26.5742 8.47604 25.257 9.04203C25.1609 9.08319 25.0306 9.08662 24.9928 9.22383C25.0786 9.31302 25.1644 9.2547 25.2501 9.23069L26.1351 8.97343C28.3751 8.31482 30.5464 7.49157 32.5805 6.33901C33.7674 5.66669 34.9165 4.93605 35.9559 4.04419C36.1754 3.85553 36.2165 3.87954 36.2577 4.16768C36.34 4.73366 36.2166 4.99779 35.7157 5.29622C35.6266 5.34767 35.5442 5.40599 35.4585 5.4643C33.9011 6.55512 32.2581 7.495 30.5052 8.24279C28.5671 9.06947 26.5776 9.72808 24.5023 10.1191C23.4835 10.3112 22.4682 10.5033 21.4391 10.6165C19.3707 10.8463 17.2954 10.9561 15.2167 11.0007C15.0589 11.0007 14.8943 11.0007 14.757 11.1036C14.8154 11.2305 14.9183 11.2237 15.004 11.2408C16.0605 11.4638 17.1342 11.5632 18.2079 11.6044C19.6829 11.6662 21.1579 11.6421 22.626 11.4603C22.8695 11.4295 22.9484 11.5187 22.9347 11.7416C22.9038 12.2321 22.8627 12.7227 22.8695 13.2132C22.873 13.5185 22.8867 13.8272 22.8352 14.1325C22.8044 14.3006 22.7255 14.3795 22.5505 14.3863C22.2349 14.3932 21.9159 14.4343 21.6004 14.4343C19.5045 14.4343 17.4292 14.6676 15.3642 15.0038C13.7005 15.2748 12.0883 15.755 10.507 16.3347C10.4178 16.3656 10.26 16.3793 10.2772 16.4959C10.2943 16.6434 10.4555 16.6023 10.5584 16.6023C11.0524 16.6091 11.5395 16.5439 12.0266 16.4685C13.1002 16.3038 14.1705 16.122 15.251 15.9985C16.8186 15.8236 18.4 15.7996 19.9744 15.755C21.4048 15.7138 22.8387 15.6555 24.2759 15.7173C25.8401 15.7824 27.4077 15.8339 28.9753 15.8716C29.7849 15.8922 30.591 15.9505 31.3971 16.0123C32.7452 16.1186 34.0898 16.2455 35.4379 16.3518C35.9113 16.3896 35.9216 16.393 35.9284 16.8801C35.949 18.1836 35.7981 19.4802 35.8049 20.7803C35.8049 20.9038 35.7638 21.0753 35.9456 21.1061C36.1068 21.1336 36.2097 21.0204 36.2749 20.8797C36.3949 20.619 36.515 20.3584 36.6316 20.0977C36.6796 19.9879 36.7414 19.8884 36.8683 19.885C37.2422 19.8747 37.2662 19.6209 37.2868 19.3327C37.3451 18.5129 37.3382 17.6931 37.3417 16.8732C37.3417 16.6571 37.4 16.5542 37.647 16.5885C38.4188 16.688 39.194 16.7703 39.9658 16.8561C40.1373 16.8767 40.2265 16.9659 40.2231 17.1374C40.2162 17.6485 40.2093 18.163 40.199 18.6741C40.175 19.9021 40.0893 21.1302 40.1099 22.3616C40.1099 22.4474 40.0927 22.5674 40.2162 22.5846C40.326 22.6017 40.374 22.5022 40.4151 22.4233C40.4563 22.341 40.4838 22.2518 40.5249 22.1695C40.5626 22.0872 40.6072 21.9671 40.7067 21.9877C40.9708 22.0426 41.1149 21.9431 41.1938 21.6961C41.2213 21.6104 41.3173 21.5932 41.3996 21.5829C41.7324 21.5281 41.849 21.336 41.8421 21.0032C41.8284 19.9364 41.8696 18.8731 41.945 17.8097C41.9896 17.1854 41.9999 17.1888 42.6174 17.326C42.6379 17.326 42.6585 17.3363 42.6757 17.3398C44.6652 17.7445 46.6376 18.2247 48.5825 18.8045C50.085 19.2504 51.584 19.7135 53.059 20.2486C54.6403 20.8214 56.1873 21.4766 57.7447 22.1146C57.8064 22.1386 57.8681 22.2004 57.9402 22.1249C57.9299 22.0014 57.8133 21.9706 57.7344 21.9225H57.7378V21.9191ZM26.4473 14.1462C26.4473 14.3726 26.3512 14.4584 26.1317 14.4481C25.8744 14.4378 25.6206 14.4481 25.3633 14.4481C24.8008 14.4824 24.2416 14.3692 23.6756 14.3863C23.4733 14.3932 23.4184 14.3006 23.4252 14.105C23.4424 13.3058 23.5041 12.5134 23.5453 11.7142C23.559 11.426 23.6859 11.3163 23.9398 11.2648C24.5847 11.1413 25.2227 11.0041 25.8676 10.8875C26.6016 10.7571 26.5742 10.764 26.581 11.5118C26.5913 12.3934 26.437 13.2646 26.4438 14.1462H26.4473ZM29.8946 9.94075C29.85 10.6439 29.8055 11.3506 29.7609 12.0538C29.7231 12.6266 29.6854 13.196 29.6477 13.7689V13.9232C29.6374 14.4 29.3664 14.6333 28.8347 14.6299C28.4642 14.6093 27.9909 14.5853 27.5209 14.5613C27.2568 14.5475 27.1024 14.4584 27.123 14.1496C27.1985 13.0177 27.2568 11.8823 27.322 10.7469C27.3323 10.5582 27.4386 10.445 27.6101 10.3867C28.2927 10.1637 28.9753 9.94418 29.6545 9.72122C29.8741 9.64918 29.9049 9.7761 29.8946 9.94075ZM33.0196 8.68186C32.9613 9.52912 32.8927 10.3764 32.8309 11.2237C32.7726 12.0503 32.7177 12.877 32.6628 13.7037C32.6457 13.9575 32.608 14.2148 32.6114 14.4687C32.6114 14.7396 32.5016 14.8425 32.2409 14.8185C32.1483 14.8082 32.0557 14.8185 31.9631 14.8185C31.5446 14.7945 31.1261 14.7671 30.7042 14.7465C30.4298 14.7328 30.3028 14.6127 30.3234 14.3177C30.4263 12.9594 30.5189 11.601 30.615 10.2426C30.615 10.1706 30.639 10.0985 30.6287 10.0299C30.5327 9.49825 30.7762 9.23069 31.2736 9.0729C31.7573 8.91854 32.2169 8.67843 32.6868 8.46918C32.9818 8.33883 33.0402 8.36971 33.0196 8.68186ZM36.2268 6.84325V7.30291C36.0793 9.24441 36.1136 11.1894 36.0313 13.1309C36.0073 13.6831 35.9902 14.2354 35.9867 14.7877C35.9867 15.0415 35.8941 15.1444 35.6403 15.1204C34.9371 15.0518 34.2373 14.9832 33.5341 14.9214C33.2323 14.894 33.1911 14.7053 33.2288 14.4687C33.3695 13.5596 33.3557 12.6369 33.4689 11.721C33.589 10.7571 33.6336 9.78639 33.7125 8.81907C33.7331 8.58581 33.7571 8.34912 33.7845 8.11587C33.7982 7.98209 33.8668 7.88947 33.9835 7.8243C34.6421 7.44697 35.2972 7.06965 35.9524 6.68889C36.1411 6.57913 36.2371 6.60657 36.2303 6.84325H36.2268ZM38.2472 2.27419C38.5903 2.23303 38.9161 2.09582 39.3312 2.09239C39.1391 2.38739 38.9058 2.55204 38.6897 2.73041C38.5903 2.81274 38.4977 2.775 38.4188 2.69268C38.3158 2.58291 38.1786 2.49373 38.1546 2.3325C38.1546 2.31535 38.2129 2.27762 38.2472 2.27419ZM38.1238 5.19674C38.237 5.13157 38.3364 5.03895 38.4428 4.95663C38.8475 4.65134 38.8441 4.65477 39.1837 5.01837C39.537 5.39913 39.904 5.76616 40.2608 6.14349C40.4769 6.37331 40.446 6.4625 40.1201 6.53453C39.4204 6.68203 38.7206 6.8261 38.0174 6.96674C37.6401 7.04221 37.5852 6.99418 37.5818 6.61V6.19151C37.4514 5.7593 37.695 5.43343 38.1203 5.19674H38.1238ZM37.1461 3.92413V3.09402L37.6058 3.50907L37.1461 3.92413ZM40.2917 12.3248C40.2608 13.3778 40.2059 14.4309 40.2265 15.484C40.2265 15.6658 40.1407 15.7104 39.9761 15.6864C39.1974 15.5732 38.4188 15.4668 37.6367 15.3571C37.4411 15.3296 37.3965 15.1993 37.3965 15.0278V13.9232H37.4068V12.8496C37.4068 12.5992 37.5269 12.4757 37.7636 12.4311C38.4874 12.3007 39.2146 12.1704 39.9349 12.0298C40.2025 11.9783 40.2985 12.0778 40.2917 12.3282V12.3248ZM40.4083 7.90319C40.4014 8.12959 40.4083 8.35255 40.4083 8.57895H40.35V10.5136C40.35 10.7228 40.2505 10.836 40.0515 10.8772C39.2866 11.0316 38.5251 11.1859 37.7636 11.3437C37.544 11.3883 37.4754 11.2545 37.4892 11.0796C37.5578 10.2083 37.5097 9.33703 37.5269 8.46575C37.5269 8.25651 37.6024 8.14674 37.815 8.10901C38.58 7.96837 39.3449 7.81744 40.1064 7.66308C40.326 7.61849 40.4151 7.68023 40.4083 7.90319ZM40.4083 4.78169C40.3397 4.81256 40.2917 4.75768 40.2505 4.71651C40.0893 4.545 39.9281 4.37349 39.7703 4.19855C39.6811 4.09907 39.6879 3.98931 39.7703 3.88983C39.9246 3.70117 40.0893 3.51593 40.2505 3.3307C40.2882 3.28611 40.3363 3.23122 40.4049 3.25867C40.4735 3.28611 40.4632 3.36157 40.4666 3.41989V4.61704C40.4666 4.67535 40.4769 4.74739 40.4083 4.78169ZM44.3462 10.7983C44.2124 12.1361 44.233 13.491 44.1129 14.8391C44.0718 15.2885 44.0546 15.7378 44.0443 16.1872C44.0375 16.4205 43.9483 16.4959 43.7185 16.4445C43.2588 16.3381 42.7992 16.2386 42.3361 16.1426C42.0651 16.0877 41.9382 15.9471 41.9485 15.6521C42.0274 13.2166 42.0548 10.7777 42.0788 8.33883C42.0788 8.25994 42.0514 8.15703 42.144 8.1193C42.2366 8.08157 42.2881 8.17761 42.3429 8.22907C42.8472 8.69215 43.3411 9.16895 43.8625 9.61831C44.2296 9.93389 44.4765 10.2769 44.3496 10.7949H44.3462V10.7983ZM44.3874 8.94941C44.2193 9.00773 44.0889 8.74017 43.9586 8.60639C43.42 8.06099 42.8952 7.49843 42.3567 6.94959C42.2023 6.7918 42.1268 6.62029 42.1303 6.40075C42.1371 6.09203 42.1303 5.78674 42.1303 5.47802H42.1371V4.46268C42.1371 4.40436 42.1268 4.32547 42.1989 4.30146C42.2709 4.27744 42.3052 4.34948 42.3395 4.39407C43.0599 5.35111 43.8145 6.28413 44.4525 7.29604C44.6549 7.61849 44.5314 8.0404 44.4971 8.4143C44.48 8.5961 44.5589 8.88767 44.3839 8.94598L44.3874 8.94941ZM47.4814 12.9422C47.3545 14.2766 47.2928 15.5526 47.2276 16.8286C47.2276 16.9213 47.1933 17.0104 47.183 17.1031C47.1693 17.2746 47.0938 17.3329 46.9189 17.2849C46.2705 17.0996 45.6188 16.9213 44.9671 16.7463C44.7853 16.6983 44.7304 16.6057 44.7441 16.4136C44.8847 14.6607 45.0974 12.9148 45.1557 11.1551C45.1557 11.0864 45.1351 10.9973 45.2072 10.9561C45.2998 10.9012 45.3581 10.9938 45.4164 11.0419C46.0304 11.5358 46.641 12.0332 47.2516 12.5306C47.3991 12.6506 47.5089 12.7981 47.4814 12.9456V12.9422ZM47.5363 11.8102C47.5363 11.8685 47.5466 11.9406 47.4814 11.9749C47.4128 12.0092 47.3682 11.9509 47.3236 11.9097C46.6925 11.2991 46.0579 10.6885 45.4301 10.078C45.3204 9.97162 45.2724 9.84127 45.2895 9.68691C45.3238 9.35075 45.3581 9.01802 45.3993 8.68186C45.4061 8.63383 45.4233 8.57209 45.4542 8.55151C45.5193 8.50692 45.5674 8.56866 45.6085 8.61325C45.9687 9.00087 46.3289 9.39534 46.6925 9.77953C46.8537 9.95104 47.0115 10.1226 47.1898 10.2769C47.5192 10.5582 47.6221 10.9046 47.5397 11.2785V11.8102H47.5363ZM50.2359 15.0827C50.1261 16.0088 50.1296 16.9418 50.0678 17.8714C50.0404 18.2591 50.0129 18.3002 49.6562 18.1836C49.0833 17.9949 48.5139 17.7925 47.9411 17.6004C47.6632 17.5078 47.7524 17.2746 47.725 17.007C47.9033 16.2352 47.7936 15.3639 47.9479 14.5132C48.0131 14.1531 48.0165 13.7792 48.0337 13.4121C48.044 13.2235 48.1057 13.1926 48.2532 13.3024C48.8569 13.7414 49.4641 14.1805 50.0712 14.6196C50.2359 14.7396 50.2565 14.9009 50.2359 15.0861V15.0827ZM50.3216 13.5459C50.2976 13.738 50.2805 13.9301 50.253 14.1222C50.2428 14.208 50.2908 14.3314 50.181 14.3657C50.0884 14.3932 50.0232 14.2903 49.9546 14.232C49.4332 13.7895 48.9153 13.3401 48.387 12.9045C48.1812 12.733 48.0646 12.5443 48.1023 12.2699C48.1263 12.0881 48.1332 11.9028 48.1537 11.721C48.1675 11.6113 48.1091 11.4535 48.2086 11.4089C48.3253 11.3574 48.4213 11.4981 48.5105 11.5735C49.0285 12.0195 49.5396 12.4757 50.0575 12.925C50.2496 13.0931 50.3559 13.2852 50.3216 13.5459ZM52.9458 19.1269C52.9286 19.3773 52.8497 19.4734 52.5822 19.3533C51.975 19.0857 51.3576 18.8388 50.7401 18.5884C50.5652 18.5163 50.4486 18.434 50.4863 18.2042C50.6578 17.1442 50.6064 16.0637 50.771 14.9969C50.8225 14.6642 50.8087 14.3074 50.819 13.961C50.8293 13.6591 50.9219 13.618 51.1758 13.786C51.7658 14.1702 52.3489 14.5716 52.9492 14.9386C53.2545 15.1273 53.2065 15.3948 53.2133 15.6692C53.1241 16.8218 53.035 17.9709 52.9492 19.1235L52.9458 19.1269Z" fill="#F47A36"/>
<path d="M9.64565 31.9595L15.6142 17.062H19.0891L10.6507 37.1151H8.5617L0.0410156 17.062H3.62217L9.64565 31.9595Z" fill="black"/>
<path d="M29.291 24.5261V22.492H32.1655V37.1185H29.291V35.1118C27.9704 36.6863 26.3067 37.4718 24.2966 37.4718C22.1801 37.4718 20.4342 36.7309 19.0586 35.2456C17.6831 33.7637 16.9971 31.9183 16.9971 29.7092C16.9971 27.5001 17.6831 25.7095 19.0586 24.2826C20.4342 22.8522 22.1801 22.1387 24.2966 22.1387C26.3033 22.1387 27.9669 22.9345 29.291 24.5261ZM24.7048 34.731C26.0632 34.731 27.1917 34.2508 28.0973 33.2938C28.9823 32.3539 29.4282 31.1876 29.4282 29.7915C29.4282 28.3954 28.9857 27.26 28.0973 26.3167C27.1917 25.3562 26.0632 24.8794 24.7048 24.8794C23.3464 24.8794 22.1801 25.3597 21.3123 26.3167C20.4444 27.2566 20.0088 28.4228 20.0088 29.8155C20.0088 31.2082 20.4444 32.3745 21.3123 33.3178C22.1801 34.2577 23.3121 34.7276 24.7048 34.7276V34.731Z" fill="black"/>
<path d="M59.1407 29.5171C59.1407 29.987 59.1029 30.4673 59.0309 30.9544H47.6048C47.8209 32.1309 48.3423 33.0605 49.1656 33.75C49.9888 34.4395 51.0865 34.7825 52.462 34.7825C53.2921 34.7825 54.1668 34.6384 55.0793 34.3469C55.9917 34.0587 56.7773 33.678 57.4256 33.208L58.6742 35.4068C56.8459 36.7652 54.7397 37.4409 52.3523 37.4409C49.783 37.4409 47.8346 36.6897 46.5037 35.1873C45.1728 33.6848 44.5073 31.8771 44.5073 29.7607C44.5073 27.6442 45.1934 25.737 46.5689 24.3066C47.9616 22.859 49.7624 22.1353 51.9681 22.1353C54.1737 22.1353 55.8031 22.7973 57.1237 24.1145C58.4615 25.4523 59.1304 27.2532 59.1304 29.5137H59.1407V29.5171ZM51.9749 24.7148C50.8532 24.7148 49.8996 25.0647 49.1107 25.761C48.3217 26.4573 47.8209 27.3766 47.6048 28.5155H56.1255C55.9986 27.3766 55.5527 26.4573 54.7809 25.761C54.0125 25.0647 53.076 24.7148 51.9715 24.7148H51.9749Z" fill="black"/>
<path d="M66.1966 33.047L69.9424 22.4922H73.2251L67.1742 38.4496C66.5225 40.1681 65.7644 41.4133 64.8931 42.1817C64.0253 42.9501 62.9653 43.3343 61.7167 43.3343C60.6842 43.3343 59.8541 43.125 59.2195 42.7099L59.6551 40.1304C60.3618 40.4391 60.9655 40.5901 61.4732 40.5901C62.6497 40.5901 63.6068 39.7565 64.3511 38.0929L64.8108 37.0089L58.4614 22.4922H61.9088L66.1966 33.047Z" fill="black"/>
<path d="M87.9856 30.7658V17.062H91.0797V37.1151H89.2342L77.7567 23.5211V37.1151H74.6626V17.062H76.292L87.989 30.7658H87.9856Z" fill="black"/>
<path d="M96.1013 37.1151H92.3555L98.9484 26.9651L92.7054 17.062H96.3414L100.873 24.5776L105.486 17.062H109.232L102.746 26.9651L109.26 37.1151H105.624L100.876 29.4623L96.1013 37.1151Z" fill="black"/>
<path d="M116.072 37.1151V20.1012H110.21V17.062H125.107V20.1012H119.245V37.1151H116.069H116.072Z" fill="black"/>
</g>
<defs>
<clipPath id="clip0_51_2826">
<rect width="125.107" height="60.3103" fill="white"/>
</clipPath>
</defs>
</svg>
