<?xml version="1.0" encoding="UTF-8"?>
<svg id="Layer_1" data-name="Layer 1" xmlns="http://www.w3.org/2000/svg" viewBox="0 0 471.14 391.46">
  <defs>
    <style>
      .cls-1 {
        fill: #f47a36;
      }

      .cls-2 {
        fill: #231f20;
      }
    </style>
  </defs>
  <g>
    <path class="cls-2" d="m81.21,267.58l17.4-43.43h10.13l-24.6,58.46h-6.09l-24.84-58.46h10.44l17.56,43.43Z"/>
    <path class="cls-2" d="m142.31,260.46c0,1.37-.11,2.77-.32,4.19h-33.31c.63,3.43,2.15,6.15,4.55,8.15,2.4,2.01,5.6,3.01,9.61,3.01,2.43,0,4.97-.42,7.63-1.27,2.66-.84,4.94-1.95,6.84-3.32l3.64,6.41c-5.33,3.95-11.47,5.93-18.43,5.93-7.49,0-13.17-2.19-17.05-6.57-3.88-4.38-5.81-9.65-5.81-15.82s2-11.73,6.01-15.9c4.06-4.22,9.31-6.33,15.74-6.33s11.18,1.93,15.03,5.77c3.9,3.9,5.85,9.15,5.85,15.74Zm-20.89-14c-3.27,0-6.05,1.02-8.35,3.05-2.29,2.03-3.76,4.71-4.39,8.03h24.84c-.37-3.32-1.68-6-3.92-8.03-2.24-2.03-4.97-3.05-8.19-3.05Z"/>
    <path class="cls-2" d="m155.6,282.61h-8.7v-42.64h8.54v6.01c1.27-2.21,3.08-3.96,5.46-5.22,2.37-1.27,5.06-1.9,8.07-1.9,4.69,0,8.65,1.53,11.87,4.59,3.27,3.11,4.9,7.52,4.9,13.21v25.95h-8.78v-23.5c0-3.85-.92-6.84-2.77-8.98-1.85-2.14-4.33-3.2-7.44-3.2-3.27,0-5.95,1.15-8.03,3.44-2.08,2.29-3.12,5.26-3.12,8.9v23.34Z"/>
    <path class="cls-2" d="m217.78,273.27l3.01,6.8c-3.16,2.37-7.09,3.56-11.79,3.56s-8.07-1.4-10.44-4.19c-2.37-2.8-3.56-6.83-3.56-12.1v-19.94h-7.36v-7.44h7.44v-15.11h8.62v15.11h14.71v7.44h-14.71v20.09c0,5.43,2.19,8.15,6.57,8.15,2.32,0,4.83-.79,7.52-2.37Z"/>
    <path class="cls-2" d="m240.8,283.64c-5.7,0-10.23-1.66-13.61-4.98-3.38-3.32-5.06-7.83-5.06-13.53v-25.16h8.7v25.08c0,3.22.88,5.78,2.65,7.67,1.77,1.9,4.21,2.85,7.32,2.85s5.62-.92,7.36-2.77c1.74-1.85,2.61-4.43,2.61-7.75v-25.08h8.78v25.16c0,5.8-1.66,10.34-4.98,13.61-3.32,3.27-7.91,4.9-13.77,4.9Z"/>
    <path class="cls-2" d="m274.98,282.61h-8.7v-42.64h8.31v6.09c2.53-4.8,6.57-7.2,12.1-7.2,1.79,0,3.48.24,5.06.71l-.79,8.46c-1.42-.53-2.98-.79-4.67-.79-3.43,0-6.17,1.16-8.23,3.48-2.06,2.32-3.08,5.67-3.08,10.05v21.83Z"/>
    <path class="cls-2" d="m332.25,260.46c0,1.37-.11,2.77-.32,4.19h-33.31c.63,3.43,2.15,6.15,4.55,8.15,2.4,2.01,5.6,3.01,9.61,3.01,2.43,0,4.97-.42,7.63-1.27,2.66-.84,4.94-1.95,6.84-3.32l3.64,6.41c-5.33,3.95-11.47,5.93-18.43,5.93-7.49,0-13.17-2.19-17.05-6.57-3.88-4.38-5.81-9.65-5.81-15.82s2-11.73,6.01-15.9c4.06-4.22,9.31-6.33,15.74-6.33s11.18,1.93,15.03,5.77c3.9,3.9,5.85,9.15,5.85,15.74Zm-20.89-14c-3.27,0-6.05,1.02-8.35,3.05-2.29,2.03-3.76,4.71-4.39,8.03h24.84c-.37-3.32-1.68-6-3.92-8.03-2.24-2.03-4.97-3.05-8.19-3.05Z"/>
    <path class="cls-2" d="m349.42,283.64c-3.38,0-6.51-.77-9.41-2.29-2.9-1.53-5.22-3.74-6.96-6.65l5.62-5.06c1.27,2.06,2.89,3.65,4.87,4.79,1.98,1.13,4,1.7,6.05,1.7s3.74-.51,5.06-1.54c1.32-1.03,1.98-2.28,1.98-3.76,0-2.11-1.21-3.74-3.64-4.9-.63-.37-2.35-1.08-5.14-2.14-2.85-1.21-4.64-2.03-5.38-2.45-4.54-2.37-6.8-5.88-6.8-10.52,0-3.53,1.32-6.46,3.96-8.78,2.74-2.32,6.28-3.48,10.6-3.48,6.06,0,10.73,2.19,14,6.57l-5.06,5.38c-2.53-3.11-5.64-4.67-9.33-4.67-1.74,0-3.13.45-4.15,1.34-1.03.9-1.54,2.01-1.54,3.32,0,2.11,1.19,3.67,3.56,4.67l4.35,1.82c2.79,1.16,4.8,2.06,6.01,2.69,4.85,2.53,7.28,6.12,7.28,10.76,0,3.74-1.48,6.88-4.43,9.41-2.95,2.53-6.78,3.8-11.47,3.8Z"/>
  </g>
  <g>
    <path class="cls-1" d="m176.01,156.07v59.97h-5.87v-59.97h5.87Z"/>
    <path class="cls-1" d="m162.85,154.65v61.38h-5.87v-61.38h5.87Z"/>
    <path class="cls-1" d="m221.53,171.73c-.59-.35-1.21-.65-1.81-.98-3.26-1.77-6.49-3.58-9.88-5.08-.69-.31-1.05-.7-.97-1.49.36-3.38.68-6.77,1.05-10.15.11-1.01.28-1.09,1.15-.62,2.67,1.44,5.47,2.54,8.38,3.38.39.11.79.3,1.23.03-.1-.31-.3-.39-.49-.48-3.99-2.07-7.76-4.49-11.36-7.15-4.08-3.02-8-6.26-11.66-9.79-2.96-2.86-5.85-5.8-8.53-8.94-3.45-4.05-6.62-8.3-9.73-12.62-1.73-2.41-2.65-4.84-2.33-7.81.16-1.51-1.02-2.39-2.55-2.16-.86.13-1.48.61-1.98,1.27-.46.6-1.03.93-1.79,1.07-2.09.39-4.16.83-6.24,1.27-.61.13-1.18.27-1.44-.55-.09-.28-.41-.43-.69-.55-1.39-.6-2.74.26-2.69,1.83.05,1.27-.4,2.25-1.23,3.14-1.35,1.44-2.76,2.83-4.3,4.05-4.77,3.79-9.99,6.86-15.4,9.62-3.73,1.9-7.59,3.52-11.43,5.17-.28.12-.66.13-.77.53.25.26.5.09.75.02.86-.25,1.72-.5,2.58-.75,6.53-1.92,12.86-4.32,18.79-7.68,3.46-1.96,6.81-4.09,9.84-6.69.64-.55.76-.48.88.36.24,1.65-.12,2.42-1.58,3.29-.26.15-.5.32-.75.49-4.54,3.18-9.33,5.92-14.44,8.1-5.65,2.41-11.45,4.33-17.5,5.47-2.97.56-5.93,1.12-8.93,1.45-6.03.67-12.08.99-18.14,1.12-.46,0-.94-.01-1.34.3.17.37.47.35.72.4,3.08.65,6.21.94,9.34,1.06,4.3.18,8.6.11,12.88-.42.71-.09.94.17.9.82-.09,1.43-.21,2.86-.19,4.29.01.89.05,1.79-.1,2.68-.09.49-.32.72-.83.74-.92.02-1.85.14-2.77.14-6.11,0-12.16.68-18.18,1.66-4.85.79-9.55,2.19-14.16,3.88-.26.09-.72.13-.67.47.05.43.52.31.82.31,1.44.02,2.86-.17,4.28-.39,3.13-.48,6.25-1.01,9.4-1.37,4.57-.51,9.18-.58,13.77-.71,4.17-.12,8.35-.29,12.54-.11,4.56.19,9.13.34,13.7.45,2.36.06,4.71.23,7.06.41,3.93.31,7.85.68,11.78.99,1.38.11,1.41.12,1.43,1.54.06,3.8-.38,7.58-.36,11.37,0,.36-.12.86.41.95.47.08.77-.25.96-.66.35-.76.7-1.52,1.04-2.28.14-.32.32-.61.69-.62,1.09-.03,1.16-.77,1.22-1.61.17-2.39.15-4.78.16-7.17,0-.63.17-.93.89-.83,2.25.29,4.51.53,6.76.78.5.06.76.32.75.82-.02,1.49-.04,2.99-.07,4.48-.07,3.58-.32,7.16-.26,10.75,0,.25-.05.6.31.65.32.05.46-.24.58-.47.12-.24.2-.5.32-.74.11-.24.24-.59.53-.53.77.16,1.19-.13,1.42-.85.08-.25.36-.3.6-.33.97-.16,1.31-.72,1.29-1.69-.04-3.11.08-6.21.3-9.31.13-1.82.16-1.81,1.96-1.41.06.01.12.03.17.04,5.8,1.18,11.55,2.58,17.22,4.27,4.38,1.3,8.75,2.65,13.05,4.21,4.61,1.67,9.12,3.58,13.66,5.44.18.07.36.25.57.03-.03-.36-.37-.45-.6-.59Zm-91.22-22.66c0,.66-.28.91-.92.88-.75-.03-1.49,0-2.24,0-1.64.1-3.27-.23-4.92-.18-.59.02-.75-.25-.73-.82.05-2.33.23-4.64.35-6.97.04-.84.41-1.16,1.15-1.31,1.88-.36,3.74-.76,5.62-1.1,2.14-.38,2.06-.36,2.08,1.82.03,2.57-.42,5.11-.4,7.68Zm10.05-12.26c-.13,2.05-.26,4.11-.39,6.16-.11,1.67-.22,3.33-.33,5,0,.15,0,.3,0,.45q-.05,2.08-2.37,2.06c-1.08-.06-2.46-.13-3.83-.2-.77-.04-1.22-.3-1.16-1.2.22-3.3.39-6.61.58-9.92.03-.55.34-.88.84-1.05,1.99-.65,3.98-1.29,5.96-1.94.64-.21.73.16.7.64Zm9.11-3.67c-.17,2.47-.37,4.94-.55,7.41-.17,2.41-.33,4.82-.49,7.23-.05.74-.16,1.49-.15,2.23,0,.79-.32,1.09-1.08,1.02-.27-.03-.54,0-.81,0-1.22-.07-2.44-.15-3.67-.21-.8-.04-1.17-.39-1.11-1.25.3-3.96.57-7.92.85-11.88.01-.21.07-.42.04-.62-.28-1.55.43-2.33,1.88-2.79,1.41-.45,2.75-1.15,4.12-1.76.86-.38,1.03-.29.97.62Zm9.35-5.36c-.01.45,0,.9,0,1.34-.43,5.66-.33,11.33-.57,16.99-.07,1.61-.12,3.22-.13,4.83,0,.74-.27,1.04-1.01.97-2.05-.2-4.09-.4-6.14-.58-.88-.08-1-.63-.89-1.32.41-2.65.37-5.34.7-8.01.35-2.81.48-5.64.71-8.46.06-.68.13-1.37.21-2.05.04-.39.24-.66.58-.85,1.92-1.1,3.83-2.2,5.74-3.31.55-.32.83-.24.81.45Zm5.89-13.32c1-.12,1.95-.52,3.16-.53-.56.86-1.24,1.34-1.87,1.86-.29.24-.56.13-.79-.11-.3-.32-.7-.58-.77-1.05,0-.05.17-.16.27-.17Zm-.36,8.52c.33-.19.62-.46.93-.7,1.18-.89,1.17-.88,2.16.18,1.03,1.11,2.1,2.18,3.14,3.28.63.67.54.93-.41,1.14-2.04.43-4.08.85-6.13,1.26-1.1.22-1.26.08-1.27-1.04,0-.33,0-.66,0-1.22-.38-1.26.33-2.21,1.57-2.9Zm-2.85-3.71v-2.42l1.34,1.21-1.34,1.21Zm9.17,24.49c-.09,3.07-.25,6.14-.19,9.21.01.53-.25.66-.73.59-2.27-.33-4.54-.64-6.82-.96-.57-.08-.7-.46-.7-.96,0-1.07,0-2.15,0-3.22h.03c0-1.04.01-2.09,0-3.13-.01-.73.35-1.09,1.04-1.22,2.11-.38,4.23-.76,6.33-1.17.78-.15,1.06.14,1.04.87Zm.34-12.89c-.02.66,0,1.31,0,1.97-.06,0-.12,0-.17,0,0,1.88,0,3.76,0,5.64,0,.61-.29.94-.87,1.06-2.23.45-4.45.9-6.67,1.36-.64.13-.84-.26-.8-.77.2-2.54.06-5.08.11-7.62.01-.61.22-.93.84-1.04,2.23-.41,4.46-.85,6.68-1.3.64-.13.9.05.88.7Zm0-9.1c-.2.09-.34-.07-.46-.19-.47-.5-.94-1-1.4-1.51-.26-.29-.24-.61,0-.9.45-.55.93-1.09,1.4-1.63.11-.13.25-.29.45-.21.2.08.17.3.18.47,0,.6,0,1.19,0,1.79,0,.57,0,1.13,0,1.7,0,.17.03.38-.17.48Zm11.48,17.54c-.39,3.9-.33,7.85-.68,11.78-.12,1.31-.17,2.62-.2,3.93-.02.68-.28.9-.95.75-1.34-.31-2.68-.6-4.03-.88-.79-.16-1.16-.57-1.13-1.43.23-7.1.31-14.21.38-21.32,0-.23-.08-.53.19-.64.27-.11.42.17.58.32,1.47,1.35,2.91,2.74,4.43,4.05,1.07.92,1.79,1.92,1.42,3.43Zm.12-5.39c-.49.17-.87-.61-1.25-1-1.57-1.59-3.1-3.23-4.67-4.83-.45-.46-.67-.96-.66-1.6.02-.9,0-1.79,0-2.69,0,0,.02,0,.02,0,0-.99,0-1.97,0-2.96,0-.17-.03-.4.18-.47.21-.07.31.14.41.27,2.1,2.79,4.3,5.51,6.16,8.46.59.94.23,2.17.13,3.26-.05.53.18,1.38-.33,1.55Zm9.02,11.64c-.37,3.89-.55,7.61-.74,11.33-.01.27-.1.53-.13.8-.04.5-.26.67-.77.53-1.89-.54-3.79-1.06-5.69-1.57-.53-.14-.69-.41-.65-.97.41-5.11,1.03-10.2,1.2-15.33,0-.2-.06-.46.15-.58.27-.16.44.11.61.25,1.79,1.44,3.57,2.89,5.35,4.34.43.35.75.78.67,1.21Zm.16-3.3c0,.17.03.38-.16.48-.2.1-.33-.07-.46-.19-1.84-1.78-3.69-3.56-5.52-5.34-.32-.31-.46-.69-.41-1.14.1-.98.2-1.95.32-2.93.02-.14.07-.32.16-.38.19-.13.33.05.45.18,1.05,1.13,2.1,2.28,3.16,3.4.47.5.93,1,1.45,1.45.96.82,1.26,1.83,1.02,2.92,0,.6,0,1.08,0,1.55Zm7.87,9.54c-.32,2.7-.31,5.42-.49,8.13-.08,1.13-.16,1.25-1.2.91-1.67-.55-3.33-1.14-5-1.7-.81-.27-.55-.95-.63-1.73.52-2.25.2-4.79.65-7.27.19-1.05.2-2.14.25-3.21.03-.55.21-.64.64-.32,1.76,1.28,3.53,2.56,5.3,3.84.48.35.54.82.48,1.36Zm.25-4.48c-.07.56-.12,1.12-.2,1.68-.03.25.11.61-.21.71-.27.08-.46-.22-.66-.39-1.52-1.29-3.03-2.6-4.57-3.87-.6-.5-.94-1.05-.83-1.85.07-.53.09-1.07.15-1.6.04-.32-.13-.78.16-.91.34-.15.62.26.88.48,1.51,1.3,3,2.63,4.51,3.94.56.49.87,1.05.77,1.81Zm7.65,16.27c-.05.73-.28,1.01-1.06.66-1.77-.78-3.57-1.5-5.37-2.23-.51-.21-.85-.45-.74-1.12.5-3.09.35-6.24.83-9.35.15-.97.11-2.01.14-3.02.03-.88.3-1,1.04-.51,1.72,1.12,3.42,2.29,5.17,3.36.89.55.75,1.33.77,2.13-.26,3.36-.52,6.71-.77,10.07Z"/>
  </g>
  <g>
    <path class="cls-2" d="m81.33,201l17.4-43.43h10.13l-24.6,58.46h-6.09l-24.84-58.46h10.44l17.56,43.43Z"/>
    <path class="cls-2" d="m138.6,179.33v-5.93h8.38v42.64h-8.38v-5.85c-3.85,4.59-8.7,6.88-14.56,6.88-6.17,0-11.26-2.16-15.27-6.49-4.01-4.32-6.01-9.7-6.01-16.14s2-11.66,6.01-15.82c4.01-4.17,9.1-6.25,15.27-6.25,5.85,0,10.7,2.32,14.56,6.96Zm-13.37,29.75c3.96,0,7.25-1.4,9.89-4.19,2.58-2.74,3.88-6.14,3.88-10.21s-1.29-7.38-3.88-10.13c-2.64-2.8-5.93-4.19-9.89-4.19s-7.36,1.4-9.89,4.19c-2.53,2.74-3.8,6.14-3.8,10.2s1.27,7.46,3.8,10.21c2.53,2.74,5.83,4.11,9.89,4.11Z"/>
    <path class="cls-2" d="m225.62,193.88c0,1.37-.11,2.77-.32,4.19h-33.31c.63,3.43,2.15,6.14,4.55,8.15,2.4,2.01,5.6,3.01,9.61,3.01,2.42,0,4.97-.42,7.63-1.27,2.66-.84,4.95-1.95,6.84-3.32l3.64,6.41c-5.33,3.96-11.47,5.93-18.43,5.93-7.49,0-13.17-2.19-17.05-6.57-3.88-4.38-5.82-9.65-5.82-15.82s2-11.73,6.01-15.9c4.06-4.22,9.31-6.33,15.74-6.33s11.18,1.93,15.03,5.77c3.9,3.9,5.85,9.15,5.85,15.74Zm-20.89-14c-3.27,0-6.05,1.02-8.35,3.05-2.3,2.03-3.76,4.71-4.39,8.03h24.84c-.37-3.32-1.67-6-3.92-8.03-2.24-2.03-4.97-3.05-8.19-3.05Z"/>
    <path class="cls-2" d="m246.19,204.17l10.92-30.77h9.57l-17.64,46.52c-1.9,5.01-4.11,8.64-6.65,10.88-2.53,2.24-5.62,3.36-9.26,3.36-3.01,0-5.43-.61-7.28-1.82l1.27-7.52c2.06.9,3.82,1.34,5.3,1.34,3.43,0,6.22-2.43,8.39-7.28l1.34-3.16-18.51-42.32h10.05l12.5,30.77Z"/>
    <path class="cls-2" d="m309.71,197.52v-39.95h9.02v58.46h-5.38l-33.46-39.63v39.63h-9.02v-58.46h4.75l34.1,39.95Z"/>
    <path class="cls-2" d="m333.37,216.03h-10.92l19.22-29.59-18.2-28.87h10.6l13.21,21.91,13.45-21.91h10.92l-18.91,28.87,18.99,29.59h-10.6l-13.84-22.31-13.92,22.31Z"/>
    <path class="cls-2" d="m391.59,216.03v-49.6h-17.09v-8.86h43.43v8.86h-17.09v49.6h-9.26Z"/>
  </g>
</svg>